{"title":"The Legend of Hercules 2014 CAM BLURRED READNFO x264 AAC-AVeNGeR","uid":9510817,"size":873703235,"categoryP":"video","categoryS":"movies","magnet":"?xt=urn:btih:9787e0b35cc486c7f7636971a55cbbfa8f2834c1&amp;dn=The+Legend+of+Hercules+2014+CAM+BLURRED+READNFO+x264+AAC-AVeNGeR&amp;tr=udp%3A%2F%2Ftracker.openbittorrent.com%3A80&amp;tr=udp%3A%2F%2Fopen.demonii.com%3A1337&amp;tr=udp%3A%2F%2Ftracker.coppersurfer.tk%3A6969&amp;tr=udp%3A%2F%2Fexodus.desync.com%3A6969","seeders":2,"leechers":1,"uploader":"xxxlavalxxx","files":-1,"time":1390408650,"description":" &lt;a href=&quot;\nhttp://www.imdb.com/title/tt1043726/&quot; rel=&quot;nofollow&quot; target=&quot;_NEW&quot;&gt;\nhttp://www.imdb.com/title/tt1043726/&lt;/a&gt;\n\n\nThe origin story of the the mythical Greek hero. Betrayed by his stepfather, the King, and exiled and sold into slavery because of a forbidden love, Hercules must use his formidable powers to fight his way back to his rightful kingdom.\n\nDirector: Renny Harlin\nWriters: Sean Hood, Daniel Giat, 2 more credits Â»\nStars: Kellan Lutz, Gaia Weiss, Scott Adkins \nGenres: Action | Adventure\nCountry: USA\nLanguage: English\n\n\n\nSoURCE...............: VOSE :bow:\n\nGeneral\nComplete name                            : The Legend of Hercules 2014 CAM BLURRED READNFO x264 AAC-AVeNGeRZ.mp4\nFormat                                   : MPEG-4\nFormat profile                           : Base Media\nCodec ID                                 : isom\nFile size                                : 814 MiB\nDuration                                 : 1h 29mn\nOverall bit rate mode                    : Variable\nOverall bit rate                         : 1 270 Kbps\nEncoded date                             : UTC 2014-01-19 17:33:04\nTagged date                              : UTC 2014-01-19 17:33:04\n\nVideo\nID                                       : 1\nFormat                                   : AVC\nFormat/Info                              : Advanced Video Codec\nFormat profile                           : &lt;a class=&quot;__cf_email__&quot; href=&quot;/cdn-cgi/l/email-protection&quot; data-cfemail=&quot;b7ffded0dff7fb839986&quot;&gt;[email&amp;#160;protected]&lt;/a&gt;&lt;script cf-hash='f9e31' type=&quot;text/javascript&quot;&gt;\n/* &lt;![CDATA[ */!function(){try{var t=&quot;currentScript&quot;in document?document.currentScript:function(){for(var t=document.getElementsByTagName(&quot;script&quot;),e=t.length;e--;)if(t[e].getAttribute(&quot;cf-hash&quot;))return t[e]}();if(t&amp;&amp;t.previousSibling){var e,r,n,i,c=t.previousSibling,a=c.getAttribute(&quot;data-cfemail&quot;);if(a){for(e=&quot;&quot;,r=parseInt(a.substr(0,2),16),n=2;a.length-n;n+=2)i=parseInt(a.substr(n,2),16)^r,e+=String.fromCharCode(i);e=document.createTextNode(e),c.parentNode.replaceChild(e,c)}}}catch(u){}}();/* ]]&gt; */&lt;/script&gt;\nFormat settings, CABAC                   : Yes\nFormat settings, ReFrames                : 3 frames\nCodec ID                                 : avc1\nCodec ID/Info                            : Advanced Video Coding\nDuration                                 : 1h 29mn\nBit rate mode                            : Variable\nBit rate                                 : 1 133 Kbps\nMaximum bit rate                         : 40.0 Mbps\nWidth                                    : 704 pixels\nHeight                                   : 304 pixels\nDisplay aspect ratio                     : 2.35:1\nFrame rate mode                          : Constant\nFrame rate                               : 17.982 fps\nColor space                              : YUV\nChroma subsampling                       : 4:2:0\nBit depth                                : 8 bits\nScan type                                : Progressive\nBits/(Pixel*Frame)                       : 0.294\nStream size                              : 726 MiB (89%)\nWriting library                          : x264 core 140 r2377 1ca7bb9\n\nAudio\nID                                       : 2\nFormat                                   : AAC\nFormat/Info                              : Advanced Audio Codec\nFormat profile                           : LC\nCodec ID                                 : 40\nDuration                                 : 1h 29mn\nBit rate mode                            : Variable\nBit rate                                 : 132 Kbps\nMaximum bit rate                         : 148 Kbps\nChannel(s)                               : 2 channels\nChannel positions                        : Front: L R\nSampling rate                            : 48.0 KHz\nCompression mode                         : Lossy\nStream size                              : 85.7 MiB (11%)\nLanguage                                 : English\nEncoded date                             : UTC 2014-01-19 17:28:47\nTagged date                              : UTC 2014-01-19 17:33:20\n\n\n\nscreens\n &lt;a href=&quot;\nhttp://i.imgur.com/ouc6VEw.png&quot; rel=&quot;nofollow&quot; target=&quot;_NEW&quot;&gt;\nhttp://i.imgur.com/ouc6VEw.png&lt;/a&gt; &lt;a href=&quot;\nhttp://i.imgur.com/7SDonFq.png&quot; rel=&quot;nofollow&quot; target=&quot;_NEW&quot;&gt;\nhttp://i.imgur.com/7SDonFq.png&lt;/a&gt; &lt;a href=&quot;\nhttp://i.imgur.com/WGc3eOi.png&quot; rel=&quot;nofollow&quot; target=&quot;_NEW&quot;&gt;\nhttp://i.imgur.com/WGc3eOi.png&lt;/a&gt; &lt;a href=&quot;\nhttp://i.imgur.com/RRz0ZR9.png&quot; rel=&quot;nofollow&quot; target=&quot;_NEW&quot;&gt;\nhttp://i.imgur.com/RRz0ZR9.png&lt;/a&gt; &lt;a href=&quot;\nhttp://i.imgur.com/CdIg2dK.png&quot; rel=&quot;nofollow&quot; target=&quot;_NEW&quot;&gt;\nhttp://i.imgur.com/CdIg2dK.png&lt;/a&gt; &lt;a href=&quot;\nhttp://i.imgur.com/vNbMtWV.png&quot; rel=&quot;nofollow&quot; target=&quot;_NEW&quot;&gt;\nhttp://i.imgur.com/vNbMtWV.png&lt;/a&gt; &lt;a href=&quot;\nhttp://i.imgur.com/wDmEFYi.png&quot; rel=&quot;nofollow&quot; target=&quot;_NEW&quot;&gt;\nhttp://i.imgur.com/wDmEFYi.png&lt;/a&gt; &lt;a href=&quot;\nhttp://i.imgur.com/wLWMdDB.png&quot; rel=&quot;nofollow&quot; target=&quot;_NEW&quot;&gt;\nhttp://i.imgur.com/wLWMdDB.png&lt;/a&gt;","torrent":{"xt":"urn:btih:9787e0b35cc486c7f7636971a55cbbfa8f2834c1","amp;dn":"The+Legend+of+Hercules+2014+CAM+BLURRED+READNFO+x264+AAC-AVeNGeR","amp;tr":["udp%3A%2F%2Ftracker.openbittorrent.com%3A80","udp%3A%2F%2Fopen.demonii.com%3A1337","udp%3A%2F%2Ftracker.coppersurfer.tk%3A6969","udp%3A%2F%2Fexodus.desync.com%3A6969"],"infoHash":"9787e0b35cc486c7f7636971a55cbbfa8f2834c1","infoHashBuffer":{"type":"Buffer","data":[151,135,224,179,92,196,134,199,247,99,105,113,165,92,187,250,143,40,52,193]},"announce":[],"urlList":[]}}